<svg width="81" height="63" viewBox="0 0 81 63" fill="none" xmlns="http://www.w3.org/2000/svg">
<path d="M2.00872 14H0.378041L4.0421 3.81818H5.81696L9.48102 14H7.85034L4.97179 5.66761H4.89225L2.00872 14ZM2.28216 10.0128H7.57193V11.3054H2.28216V10.0128ZM12.3186 9.46591V14H10.8321V6.36364H12.2589V7.60653H12.3534C12.529 7.20218 12.8041 6.87737 13.1786 6.6321C13.5565 6.38684 14.0321 6.2642 14.6055 6.2642C15.1259 6.2642 15.5816 6.37358 15.9727 6.59233C16.3638 6.80777 16.667 7.12926 16.8825 7.55682C17.0979 7.98437 17.2056 8.51302 17.2056 9.14276V14H15.7191V9.32173C15.7191 8.76823 15.575 8.3357 15.2866 8.02415C14.9982 7.70928 14.6022 7.55185 14.0984 7.55185C13.7537 7.55185 13.4471 7.62642 13.1786 7.77557C12.9135 7.92472 12.703 8.14347 12.5473 8.43182C12.3948 8.71686 12.3186 9.06155 12.3186 9.46591ZM22.4159 14.1541C21.7 14.1541 21.0752 13.9901 20.5416 13.6619C20.008 13.3338 19.5937 12.8748 19.2987 12.2848C19.0037 11.6948 18.8562 11.0054 18.8562 10.2166C18.8562 9.42448 19.0037 8.73177 19.2987 8.13849C19.5937 7.54522 20.008 7.08452 20.5416 6.75639C21.0752 6.42827 21.7 6.2642 22.4159 6.2642C23.1318 6.2642 23.7565 6.42827 24.2902 6.75639C24.8238 7.08452 25.2381 7.54522 25.533 8.13849C25.828 8.73177 25.9755 9.42448 25.9755 10.2166C25.9755 11.0054 25.828 11.6948 25.533 12.2848C25.2381 12.8748 24.8238 13.3338 24.2902 13.6619C23.7565 13.9901 23.1318 14.1541 22.4159 14.1541ZM22.4208 12.9062C22.8848 12.9062 23.2693 12.7836 23.5742 12.5384C23.8792 12.2931 24.1045 11.9666 24.2504 11.5589C24.3995 11.1513 24.4741 10.7022 24.4741 10.2116C24.4741 9.72443 24.3995 9.27699 24.2504 8.86932C24.1045 8.45833 23.8792 8.12855 23.5742 7.87997C23.2693 7.63139 22.8848 7.5071 22.4208 7.5071C21.9535 7.5071 21.5657 7.63139 21.2575 7.87997C20.9526 8.12855 20.7255 8.45833 20.5764 8.86932C20.4305 9.27699 20.3576 9.72443 20.3576 10.2116C20.3576 10.7022 20.4305 11.1513 20.5764 11.5589C20.7255 11.9666 20.9526 12.2931 21.2575 12.5384C21.5657 12.7836 21.9535 12.9062 22.4208 12.9062ZM29.1213 9.46591V14H27.6348V6.36364H29.0616V7.60653H29.1561C29.3318 7.20218 29.6069 6.87737 29.9814 6.6321C30.3592 6.38684 30.8348 6.2642 31.4082 6.2642C31.9286 6.2642 32.3843 6.37358 32.7754 6.59233C33.1665 6.80777 33.4698 7.12926 33.6852 7.55682C33.9006 7.98437 34.0084 8.51302 34.0084 9.14276V14H32.5219V9.32173C32.5219 8.76823 32.3777 8.3357 32.0893 8.02415C31.801 7.70928 31.4049 7.55185 30.9011 7.55185C30.5564 7.55185 30.2498 7.62642 29.9814 7.77557C29.7162 7.92472 29.5058 8.14347 29.35 8.43182C29.1975 8.71686 29.1213 9.06155 29.1213 9.46591ZM36.6682 16.8636C36.4461 16.8636 36.2439 16.8454 36.0616 16.8089C35.8793 16.7758 35.7435 16.7393 35.654 16.6996L36.0119 15.4815C36.2837 15.5545 36.5256 15.5859 36.7378 15.576C36.9499 15.5661 37.1372 15.4865 37.2996 15.3374C37.4653 15.1882 37.6111 14.9446 37.7371 14.6065L37.921 14.0994L35.127 6.36364H36.7179L38.6518 12.2898H38.7314L40.6653 6.36364H42.2612L39.1142 15.0192C38.9684 15.4169 38.7828 15.7533 38.5574 16.0284C38.332 16.3068 38.0635 16.5156 37.752 16.6548C37.4404 16.794 37.0792 16.8636 36.6682 16.8636ZM43.6582 14V6.36364H45.0851V7.60653H45.1795C45.3386 7.18561 45.5988 6.85748 45.9601 6.62216C46.3213 6.38352 46.7539 6.2642 47.2577 6.2642C47.7681 6.2642 48.1956 6.38352 48.5403 6.62216C48.8883 6.8608 49.1452 7.18892 49.3109 7.60653H49.3905C49.5728 7.19886 49.8628 6.87405 50.2605 6.6321C50.6582 6.38684 51.1322 6.2642 51.6824 6.2642C52.3751 6.2642 52.9402 6.4813 53.3777 6.91548C53.8185 7.34967 54.0389 8.00426 54.0389 8.87926V14H52.5524V9.01847C52.5524 8.50142 52.4115 8.12689 52.1298 7.89489C51.8481 7.66288 51.5117 7.54688 51.1206 7.54688C50.6367 7.54688 50.2605 7.69602 49.992 7.99432C49.7236 8.2893 49.5893 8.6688 49.5893 9.13281V14H48.1078V8.92401C48.1078 8.50971 47.9785 8.17661 47.72 7.92472C47.4615 7.67282 47.1251 7.54688 46.7108 7.54688C46.4291 7.54688 46.1689 7.62145 45.9302 7.7706C45.6949 7.91643 45.5043 8.12026 45.3585 8.3821C45.216 8.64394 45.1447 8.94721 45.1447 9.2919V14H43.6582ZM59.2479 14.1541C58.532 14.1541 57.9072 13.9901 57.3736 13.6619C56.84 13.3338 56.4257 12.8748 56.1307 12.2848C55.8357 11.6948 55.6882 11.0054 55.6882 10.2166C55.6882 9.42448 55.8357 8.73177 56.1307 8.13849C56.4257 7.54522 56.84 7.08452 57.3736 6.75639C57.9072 6.42827 58.532 6.2642 59.2479 6.2642C59.9638 6.2642 60.5886 6.42827 61.1222 6.75639C61.6558 7.08452 62.0701 7.54522 62.3651 8.13849C62.6601 8.73177 62.8076 9.42448 62.8076 10.2166C62.8076 11.0054 62.6601 11.6948 62.3651 12.2848C62.0701 12.8748 61.6558 13.3338 61.1222 13.6619C60.5886 13.9901 59.9638 14.1541 59.2479 14.1541ZM59.2529 12.9062C59.7169 12.9062 60.1013 12.7836 60.4063 12.5384C60.7112 12.2931 60.9366 11.9666 61.0824 11.5589C61.2316 11.1513 61.3061 10.7022 61.3061 10.2116C61.3061 9.72443 61.2316 9.27699 61.0824 8.86932C60.9366 8.45833 60.7112 8.12855 60.4063 7.87997C60.1013 7.63139 59.7169 7.5071 59.2529 7.5071C58.7855 7.5071 58.3977 7.63139 58.0895 7.87997C57.7846 8.12855 57.5576 8.45833 57.4084 8.86932C57.2626 9.27699 57.1897 9.72443 57.1897 10.2116C57.1897 10.7022 57.2626 11.1513 57.4084 11.5589C57.5576 11.9666 57.7846 12.2931 58.0895 12.5384C58.3977 12.7836 58.7855 12.9062 59.2529 12.9062ZM69.3042 10.8331V6.36364H70.7957V14H69.334V12.6776H69.2545C69.0788 13.0852 68.7971 13.425 68.4093 13.6967C68.0248 13.9652 67.5459 14.0994 66.9725 14.0994C66.482 14.0994 66.0478 13.9917 65.6699 13.7763C65.2954 13.5575 65.0004 13.2344 64.785 12.8068C64.5729 12.3793 64.4668 11.8506 64.4668 11.2209V6.36364H65.9533V11.0419C65.9533 11.5623 66.0975 11.9766 66.3859 12.2848C66.6742 12.593 67.0487 12.7472 67.5094 12.7472C67.7878 12.7472 68.0646 12.6776 68.3397 12.5384C68.6181 12.3991 68.8484 12.1887 69.0307 11.907C69.2163 11.6252 69.3075 11.2673 69.3042 10.8331ZM78.5153 8.22798L77.168 8.46662C77.1116 8.29427 77.0222 8.13021 76.8995 7.97443C76.7802 7.81865 76.6178 7.69105 76.4123 7.59162C76.2068 7.49219 75.95 7.44247 75.6417 7.44247C75.2208 7.44247 74.8695 7.53693 74.5877 7.72585C74.306 7.91146 74.1652 8.15175 74.1652 8.44673C74.1652 8.70194 74.2596 8.90743 74.4485 9.06321C74.6375 9.21899 74.9424 9.34659 75.3633 9.44602L76.5764 9.72443C77.279 9.88684 77.8027 10.1371 78.1474 10.4751C78.4921 10.8132 78.6644 11.2524 78.6644 11.7926C78.6644 12.25 78.5319 12.6577 78.2667 13.0156C78.0049 13.3703 77.6386 13.6487 77.168 13.8509C76.7007 14.053 76.1588 14.1541 75.5423 14.1541C74.6872 14.1541 73.9895 13.9718 73.4492 13.6072C72.909 13.2393 72.5776 12.7173 72.4549 12.0412L73.8917 11.8224C73.9812 12.197 74.1652 12.4804 74.4436 12.6726C74.722 12.8615 75.0849 12.956 75.5323 12.956C76.0196 12.956 76.409 12.8549 76.7007 12.6527C76.9923 12.4472 77.1382 12.197 77.1382 11.902C77.1382 11.6634 77.0487 11.4628 76.8697 11.3004C76.694 11.138 76.4239 11.0154 76.0593 10.9325L74.7667 10.6491C74.0541 10.4867 73.5271 10.2282 73.1857 9.87358C72.8477 9.51894 72.6786 9.06984 72.6786 8.52628C72.6786 8.07552 72.8046 7.68111 73.0565 7.34304C73.3084 7.00497 73.6564 6.74148 74.1005 6.55256C74.5446 6.36032 75.0534 6.2642 75.6268 6.2642C76.4521 6.2642 77.1017 6.44318 77.5757 6.80114C78.0496 7.15578 78.3628 7.63139 78.5153 8.22798ZM2.32548 21.3636L5.56412 30.8409H5.6948L8.93344 21.3636H10.8312L6.64367 33H4.61526L0.427757 21.3636H2.32548ZM15.1763 33.1761C14.3582 33.1761 13.6441 32.9886 13.0343 32.6136C12.4244 32.2386 11.951 31.714 11.6138 31.0398C11.2767 30.3655 11.1082 29.5777 11.1082 28.6761C11.1082 27.7708 11.2767 26.9792 11.6138 26.3011C11.951 25.6231 12.4244 25.0966 13.0343 24.7216C13.6441 24.3466 14.3582 24.1591 15.1763 24.1591C15.9945 24.1591 16.7085 24.3466 17.3184 24.7216C17.9282 25.0966 18.4017 25.6231 18.7388 26.3011C19.076 26.9792 19.2445 27.7708 19.2445 28.6761C19.2445 29.5777 19.076 30.3655 18.7388 31.0398C18.4017 31.714 17.9282 32.2386 17.3184 32.6136C16.7085 32.9886 15.9945 33.1761 15.1763 33.1761ZM15.182 31.75C15.7123 31.75 16.1517 31.6098 16.5002 31.3295C16.8487 31.0492 17.1063 30.6761 17.2729 30.2102C17.4434 29.7443 17.5286 29.2311 17.5286 28.6705C17.5286 28.1136 17.4434 27.6023 17.2729 27.1364C17.1063 26.6667 16.8487 26.2898 16.5002 26.0057C16.1517 25.7216 15.7123 25.5795 15.182 25.5795C14.6479 25.5795 14.2047 25.7216 13.8525 26.0057C13.504 26.2898 13.2445 26.6667 13.0741 27.1364C12.9074 27.6023 12.8241 28.1136 12.8241 28.6705C12.8241 29.2311 12.9074 29.7443 13.0741 30.2102C13.2445 30.6761 13.504 31.0492 13.8525 31.3295C14.2047 31.6098 14.6479 31.75 15.182 31.75ZM25.2147 24.2727V25.6364H20.4476V24.2727H25.2147ZM21.7261 22.1818H23.4249V30.4375C23.4249 30.767 23.4742 31.0152 23.5726 31.1818C23.6711 31.3447 23.798 31.4564 23.9533 31.517C24.1124 31.5739 24.2848 31.6023 24.4704 31.6023C24.6067 31.6023 24.7261 31.5928 24.8283 31.5739C24.9306 31.5549 25.0101 31.5398 25.067 31.5284L25.3738 32.9318C25.2753 32.9697 25.1351 33.0076 24.9533 33.0455C24.7715 33.0871 24.5442 33.1098 24.2715 33.1136C23.8245 33.1212 23.4079 33.0417 23.0215 32.875C22.6351 32.7083 22.3226 32.4508 22.084 32.1023C21.8454 31.7538 21.7261 31.3163 21.7261 30.7898V22.1818ZM27.0939 33V24.2727H28.7928V33H27.0939ZM27.9519 22.9261C27.6564 22.9261 27.4027 22.8277 27.1905 22.6307C26.9822 22.4299 26.878 22.1913 26.878 21.9148C26.878 21.6345 26.9822 21.3958 27.1905 21.1989C27.4027 20.9981 27.6564 20.8977 27.9519 20.8977C28.2474 20.8977 28.4993 20.9981 28.7076 21.1989C28.9197 21.3958 29.0258 21.6345 29.0258 21.9148C29.0258 22.1913 28.9197 22.4299 28.7076 22.6307C28.4993 22.8277 28.2474 22.9261 27.9519 22.9261ZM32.7772 27.8182V33H31.0783V24.2727H32.709V25.6932H32.817C33.0177 25.2311 33.3321 24.8598 33.7601 24.5795C34.192 24.2992 34.7355 24.1591 35.3908 24.1591C35.9855 24.1591 36.5064 24.2841 36.9533 24.5341C37.4003 24.7803 37.7469 25.1477 37.9931 25.6364C38.2393 26.125 38.3624 26.7292 38.3624 27.4489V33H36.6636V27.6534C36.6636 27.0208 36.4988 26.5265 36.1692 26.1705C35.8397 25.8106 35.387 25.6307 34.8113 25.6307C34.4173 25.6307 34.067 25.7159 33.7601 25.8864C33.4571 26.0568 33.2166 26.3068 33.0386 26.6364C32.8643 26.9621 32.7772 27.3561 32.7772 27.8182ZM44.2999 36.4545C43.6067 36.4545 43.0101 36.3636 42.5101 36.1818C42.0139 36 41.6086 35.7595 41.2942 35.4602C40.9798 35.161 40.745 34.8333 40.5897 34.4773L42.0499 33.875C42.1522 34.0417 42.2886 34.2178 42.459 34.4034C42.6332 34.5928 42.8681 34.7538 43.1636 34.8864C43.4628 35.0189 43.8473 35.0852 44.317 35.0852C44.9609 35.0852 45.4931 34.928 45.9136 34.6136C46.334 34.303 46.5442 33.8068 46.5442 33.125V31.4091H46.4363C46.334 31.5947 46.1863 31.8011 45.9931 32.0284C45.8037 32.2557 45.5423 32.4527 45.209 32.6193C44.8757 32.786 44.442 32.8693 43.9079 32.8693C43.2185 32.8693 42.5973 32.7083 42.0442 32.3864C41.495 32.0606 41.0594 31.5814 40.7374 30.9489C40.4192 30.3125 40.2601 29.5303 40.2601 28.6023C40.2601 27.6742 40.4173 26.8788 40.7317 26.2159C41.0499 25.553 41.4855 25.0455 42.0386 24.6932C42.5916 24.3371 43.2185 24.1591 43.9192 24.1591C44.4609 24.1591 44.8984 24.25 45.2317 24.4318C45.5651 24.6098 45.8245 24.8182 46.0101 25.0568C46.1995 25.2955 46.3454 25.5057 46.4476 25.6875H46.5726V24.2727H48.2374V33.1932C48.2374 33.9432 48.0632 34.5587 47.7147 35.0398C47.3662 35.5208 46.8946 35.8769 46.2999 36.108C45.709 36.339 45.0423 36.4545 44.2999 36.4545ZM44.2829 31.4602C44.7715 31.4602 45.1844 31.3466 45.5215 31.1193C45.8624 30.8883 46.12 30.5587 46.2942 30.1307C46.4723 29.6989 46.5613 29.1818 46.5613 28.5795C46.5613 27.9924 46.4742 27.4754 46.2999 27.0284C46.1257 26.5814 45.87 26.233 45.5329 25.983C45.1957 25.7292 44.7791 25.6023 44.2829 25.6023C43.7715 25.6023 43.3454 25.7348 43.0045 26C42.6636 26.2614 42.406 26.6174 42.2317 27.0682C42.0613 27.5189 41.9761 28.0227 41.9761 28.5795C41.9761 29.1515 42.0632 29.6534 42.2374 30.0852C42.4117 30.517 42.6692 30.8542 43.0101 31.0966C43.3548 31.339 43.7791 31.4602 44.2829 31.4602ZM2.29139 52H0.427757L4.61526 40.3636H6.64367L10.8312 52H8.96753L5.67776 42.4773H5.58685L2.29139 52ZM2.60389 47.4432H8.64935V48.9205H2.60389V47.4432ZM12.3752 55.2727V43.2727H14.0343V44.6875H14.1763C14.2748 44.5057 14.4169 44.2955 14.6025 44.0568C14.7881 43.8182 15.0457 43.6098 15.3752 43.4318C15.7047 43.25 16.1404 43.1591 16.682 43.1591C17.3866 43.1591 18.0154 43.3371 18.5684 43.6932C19.1214 44.0492 19.5551 44.5625 19.8695 45.233C20.1877 45.9034 20.3468 46.7102 20.3468 47.6534C20.3468 48.5966 20.1896 49.4053 19.8752 50.0795C19.5608 50.75 19.129 51.267 18.5797 51.6307C18.0305 51.9905 17.4036 52.1705 16.6991 52.1705C16.1688 52.1705 15.735 52.0814 15.3979 51.9034C15.0646 51.7254 14.8032 51.517 14.6138 51.2784C14.4244 51.0398 14.2786 50.8277 14.1763 50.642H14.0741V55.2727H12.3752ZM14.04 47.6364C14.04 48.25 14.129 48.7879 14.307 49.25C14.485 49.7121 14.7426 50.0739 15.0797 50.3352C15.4169 50.5928 15.8297 50.7216 16.3184 50.7216C16.826 50.7216 17.2502 50.5871 17.5911 50.3182C17.932 50.0455 18.1896 49.6761 18.3638 49.2102C18.5419 48.7443 18.6309 48.2197 18.6309 47.6364C18.6309 47.0606 18.5438 46.5436 18.3695 46.0852C18.1991 45.6269 17.9415 45.2652 17.5968 45C17.2559 44.7348 16.8297 44.6023 16.3184 44.6023C15.826 44.6023 15.4093 44.7292 15.0684 44.983C14.7313 45.2367 14.4756 45.5909 14.3013 46.0455C14.1271 46.5 14.04 47.0303 14.04 47.6364ZM22.2502 55.2727V43.2727H23.9093V44.6875H24.0513C24.1498 44.5057 24.2919 44.2955 24.4775 44.0568C24.6631 43.8182 24.9207 43.6098 25.2502 43.4318C25.5797 43.25 26.0154 43.1591 26.557 43.1591C27.2616 43.1591 27.8904 43.3371 28.4434 43.6932C28.9964 44.0492 29.4301 44.5625 29.7445 45.233C30.0627 45.9034 30.2218 46.7102 30.2218 47.6534C30.2218 48.5966 30.0646 49.4053 29.7502 50.0795C29.4358 50.75 29.004 51.267 28.4547 51.6307C27.9055 51.9905 27.2786 52.1705 26.5741 52.1705C26.0438 52.1705 25.61 52.0814 25.2729 51.9034C24.9396 51.7254 24.6782 51.517 24.4888 51.2784C24.2994 51.0398 24.1536 50.8277 24.0513 50.642H23.9491V55.2727H22.2502ZM23.915 47.6364C23.915 48.25 24.004 48.7879 24.182 49.25C24.36 49.7121 24.6176 50.0739 24.9547 50.3352C25.2919 50.5928 25.7047 50.7216 26.1934 50.7216C26.701 50.7216 27.1252 50.5871 27.4661 50.3182C27.807 50.0455 28.0646 49.6761 28.2388 49.2102C28.4169 48.7443 28.5059 48.2197 28.5059 47.6364C28.5059 47.0606 28.4188 46.5436 28.2445 46.0852C28.0741 45.6269 27.8165 45.2652 27.4718 45C27.1309 44.7348 26.7047 44.6023 26.1934 44.6023C25.701 44.6023 25.2843 44.7292 24.9434 44.983C24.6063 45.2367 24.3506 45.5909 24.1763 46.0455C24.0021 46.5 23.915 47.0303 23.915 47.6364Z" fill="#F1F0ED"/>
<path d="M66.4732 45.8182V45.6477C66.4922 43.839 66.6815 42.3996 67.0414 41.3295C67.4012 40.2595 67.9126 39.393 68.5755 38.7301C69.2384 38.0672 70.0338 37.4564 70.9618 36.8977C71.5206 36.5568 72.0225 36.1544 72.4675 35.6903C72.9126 35.2169 73.263 34.6723 73.5187 34.0568C73.7838 33.4413 73.9164 32.7595 73.9164 32.0114C73.9164 31.0833 73.6986 30.2784 73.263 29.5966C72.8274 28.9148 72.245 28.3892 71.5158 28.0199C70.7867 27.6506 69.977 27.4659 69.0868 27.4659C68.3103 27.4659 67.5622 27.6269 66.8425 27.9489C66.1228 28.2708 65.5215 28.7775 65.0386 29.4688C64.5556 30.16 64.2762 31.0644 64.2005 32.1818H60.6209C60.6967 30.572 61.1134 29.1941 61.8709 28.0483C62.638 26.9025 63.6465 26.0265 64.8965 25.4205C66.156 24.8144 67.5528 24.5114 69.0868 24.5114C70.7535 24.5114 72.2024 24.8428 73.4334 25.5057C74.674 26.1686 75.6304 27.0777 76.3028 28.233C76.9846 29.3883 77.3255 30.7045 77.3255 32.1818C77.3255 33.2235 77.1645 34.1657 76.8425 35.0085C76.53 35.8513 76.0755 36.6042 75.4789 37.267C74.8918 37.9299 74.1815 38.517 73.3482 39.0284C72.5149 39.5492 71.8473 40.0985 71.3454 40.6761C70.8435 41.2443 70.4789 41.9214 70.2516 42.7074C70.0243 43.4934 69.9012 44.4735 69.8823 45.6477V45.8182H66.4732ZM68.2914 54.2273C67.5906 54.2273 66.9893 53.9763 66.4874 53.4744C65.9855 52.9725 65.7346 52.3712 65.7346 51.6705C65.7346 50.9697 65.9855 50.3684 66.4874 49.8665C66.9893 49.3646 67.5906 49.1136 68.2914 49.1136C68.9922 49.1136 69.5935 49.3646 70.0954 49.8665C70.5973 50.3684 70.8482 50.9697 70.8482 51.6705C70.8482 52.1345 70.7298 52.5606 70.4931 52.9489C70.2658 53.3371 69.9581 53.6496 69.5698 53.8864C69.191 54.1136 68.7649 54.2273 68.2914 54.2273Z" fill="#F1F0ED"/>
</svg>
