<svg width="203" height="46" viewBox="0 0 203 46" fill="none" xmlns="http://www.w3.org/2000/svg">
<path d="M168.813 7.4C170.913 7.4 172.513 5.8 172.513 3.7C172.513 1.6 170.913 0 168.813 0C166.713 0 165.113 1.6 165.113 3.7C165.113 5.7 166.813 7.4 168.813 7.4Z" fill="#F1F0ED"/>
<path d="M33.6128 11.6H28.8128C27.3128 11.6 27.1128 11.8 25.4128 13.5L10.0128 29V4.70001C10.1128 4.10001 9.61281 3.50001 9.01281 3.40001C8.91281 3.40001 8.81281 3.40001 8.71281 3.40001H1.31281C0.712806 3.30001 0.112806 3.80001 0.0128056 4.40001C0.0128056 4.50001 0.0128056 4.60001 0.0128056 4.70001V8.00001C-0.0871944 8.60001 0.412806 9.20001 1.01281 9.30001C1.11281 9.30001 1.21281 9.30001 1.31281 9.30001H4.01281V39.3H1.31281C0.712806 39.2 0.112806 39.7 0.0128056 40.3C0.0128056 40.4 0.0128056 40.5 0.0128056 40.6V43.9C-0.0871944 44.5 0.412806 45.1 1.01281 45.2C1.11281 45.2 1.21281 45.2 1.31281 45.2H12.5128C13.1128 45.3 13.7128 44.9 13.8128 44.3C13.8128 44.2 13.8128 44.1 13.8128 44V40.6C13.9128 40 13.4128 39.4 12.8128 39.3C12.7128 39.3 12.6128 39.3 12.5128 39.3H9.91281V36.8L15.7128 30.9L25.9128 43.3C27.2128 45 27.2128 45 29.2128 45H33.6128C34.2128 45.1 34.8128 44.6 34.8128 44C34.8128 43.9 34.8128 43.8 34.8128 43.7V40.6C34.9128 40 34.4128 39.4 33.8128 39.3C33.7128 39.3 33.6128 39.3 33.5128 39.3H29.9128L19.8128 26.8L29.0128 17.4H33.5128C34.1128 17.5 34.6128 17 34.7128 16.4C34.7128 16.3 34.7128 16.2 34.7128 16.2V12.8C34.8128 12.2 34.4128 11.6 33.7128 11.5C33.8128 11.6 33.7128 11.6 33.6128 11.6Z" fill="#F1F0ED"/>
<path d="M73.2128 39.3H70.5128V25C70.5128 16.5 65.1128 11 56.8128 11C53.3128 10.9 49.9128 12.1 47.3128 14.5V12.9C47.4128 12.3 46.9128 11.7 46.3128 11.7C46.2128 11.7 46.1128 11.7 46.0128 11.7H38.8128C38.2128 11.6 37.6128 12 37.5128 12.7C37.5128 12.8 37.5128 12.9 37.5128 13V16.3C37.4128 16.9 37.9128 17.5 38.5128 17.6C38.6128 17.6 38.7128 17.6 38.8128 17.6H41.5128V39.4H38.8128C38.2128 39.3 37.6128 39.8 37.5128 40.4C37.5128 40.5 37.5128 40.6 37.5128 40.7V44C37.5128 44.6 37.9128 45.2 38.6128 45.2C38.7128 45.2 38.7128 45.2 38.8128 45.2H50.0128C50.6128 45.3 51.2128 44.8 51.3128 44.2C51.3128 44.1 51.3128 44 51.3128 44V40.6C51.4128 40 50.9128 39.4 50.3128 39.3C50.2128 39.3 50.1128 39.3 50.0128 39.3H47.4128V26C47.4128 20.5 51.2128 16.6 56.5128 16.6C61.8128 16.6 64.7128 19.9 64.7128 25.6V39.3H62.0128C61.4128 39.2 60.8128 39.7 60.8128 40.4C60.8128 40.5 60.8128 40.6 60.8128 40.7V44C60.7128 44.6 61.2128 45.2 61.8128 45.3C61.9128 45.3 62.0128 45.3 62.1128 45.3H73.3128C73.9128 45.4 74.5128 44.9 74.6128 44.3C74.6128 44.2 74.6128 44.1 74.6128 44V40.6C74.7128 40 74.2128 39.4 73.6128 39.3C73.4128 39.3 73.3128 39.3 73.2128 39.3Z" fill="#F1F0ED"/>
<path d="M91.5128 11C82.0128 11 74.4128 18.7 74.4128 28.1C74.4128 28.2 74.4128 28.3 74.4128 28.5C74.2128 37.9 81.7128 45.6 91.1128 45.8C91.2128 45.8 91.3128 45.8 91.4128 45.8C100.913 45.8 108.613 38.1 108.613 28.7C108.613 28.6 108.613 28.5 108.613 28.4C108.813 19 101.313 11.3 91.9128 11.1C91.7128 11 91.6128 11 91.5128 11ZM91.5128 40.1C85.3128 40.1 80.5128 34.9 80.5128 28.3C80.5128 21.7 85.2128 16.7 91.4128 16.7C97.6128 16.7 102.513 21.9 102.513 28.5C102.513 35.1 97.7128 40.1 91.5128 40.1Z" fill="#F1F0ED"/>
<path d="M158.313 11.6H146.813C146.213 11.5 145.613 11.9 145.513 12.6C145.513 12.7 145.513 12.8 145.513 12.9V16.2C145.413 16.8 145.913 17.4 146.513 17.5C146.613 17.5 146.713 17.5 146.813 17.5H149.413L143.913 35.2L136.113 12.6C135.913 12 135.313 11.6 134.713 11.6H132.413C131.813 11.6 131.213 12 131.013 12.6L123.313 35.2L117.813 17.4H120.413C121.013 17.5 121.613 17 121.713 16.4C121.713 16.3 121.713 16.2 121.713 16.1V12.8C121.813 12.2 121.313 11.6 120.713 11.6C120.613 11.6 120.513 11.6 120.413 11.6H108.813C108.213 11.5 107.613 12 107.513 12.6C107.513 12.7 107.513 12.8 107.513 12.8V16.1C107.413 16.7 107.913 17.3 108.513 17.4C108.613 17.4 108.713 17.4 108.713 17.4H111.413L120.513 44.2C120.713 44.8 121.313 45.2 121.913 45.2H124.413C125.013 45.2 125.613 44.8 125.813 44.2L133.413 22.2L141.013 44.2C141.213 44.8 141.813 45.2 142.413 45.2H144.913C145.513 45.2 146.113 44.8 146.313 44.2L155.513 17.4H158.213C158.813 17.5 159.413 17 159.513 16.4C159.513 16.3 159.513 16.2 159.513 16.2V12.9C159.613 12.3 159.113 11.7 158.513 11.7C158.513 11.6 158.413 11.6 158.313 11.6Z" fill="#F1F0ED"/>
<path d="M174.613 39.3001H171.913V12.9001C172.013 12.3001 171.513 11.7001 170.913 11.7001C170.813 11.7001 170.713 11.7001 170.713 11.7001H163.313C162.713 11.6001 162.113 12.1001 162.113 12.7001C162.113 12.8001 162.113 12.9001 162.113 13.0001V16.3001C162.013 16.9001 162.513 17.5001 163.113 17.6001C163.213 17.6001 163.313 17.6001 163.413 17.6001H166.113V39.4001H161.213C160.613 39.3001 160.013 39.8001 159.913 40.4001C159.913 40.5001 159.913 40.6001 159.913 40.7001V44.0001C159.813 44.6001 160.313 45.2001 160.913 45.3001C161.013 45.3001 161.113 45.3001 161.213 45.3001H174.613C175.213 45.4001 175.813 44.9001 175.913 44.3001C175.913 44.2001 175.913 44.1001 175.913 44.0001V40.6001C176.013 40.0001 175.513 39.4001 174.913 39.3001C174.813 39.3001 174.713 39.3001 174.613 39.3001Z" fill="#F1F0ED"/>
<path d="M200.613 28.1H197.413C196.813 28 196.213 28.5 196.113 29.1C196.113 29.2 196.113 29.3 196.113 29.4V35.6C196.213 37.9 194.413 39.9 192.113 40C188.913 40 187.513 38.7 187.513 35.5V17.5H195.313C195.913 17.6 196.513 17.1 196.613 16.5C196.613 16.4 196.613 16.3 196.613 16.2V12.9C196.713 12.3 196.213 11.7 195.613 11.7C195.513 11.7 195.413 11.7 195.413 11.7H187.613V4.79999C187.713 4.19999 187.313 3.59999 186.613 3.49999C186.513 3.49999 186.413 3.49999 186.313 3.49999H182.913C182.313 3.39999 181.713 3.89999 181.613 4.49999C181.613 4.59999 181.613 4.69999 181.613 4.79999V11.8H178.013C177.413 11.7 176.813 12.2 176.813 12.8C176.813 12.9 176.813 12.9 176.813 13V16.3C176.713 16.9 177.213 17.5 177.813 17.6C177.913 17.6 178.013 17.6 178.113 17.6H181.713V35.9C181.713 41.9 185.613 45.8 191.713 45.8C198.013 45.8 202.013 42 202.013 36.2V29.5C202.113 28.9 201.613 28.3 201.013 28.2C200.913 28.1 200.813 28.1 200.613 28.1Z" fill="#F1F0ED"/>
</svg>
