<?xml version="1.0" standalone="no"?>
<!DOCTYPE svg PUBLIC "-//W3C//DTD SVG 20010904//EN"
 "http://www.w3.org/TR/2001/REC-SVG-20010904/DTD/svg10.dtd">
<svg version="1.0" xmlns="http://www.w3.org/2000/svg"
 width="648.000000pt" height="648.000000pt" viewBox="0 0 648.000000 648.000000"
 preserveAspectRatio="xMidYMid meet">
<metadata>
Created by potrace 1.14, written by Peter Selinger 2001-2017
</metadata>
<g transform="translate(0.000000,648.000000) scale(0.100000,-0.100000)"
fill="#000000" stroke="none">
<path d="M315 5426 c-14 -32 -28 -67 -29 -76 -2 -8 -82 -231 -96 -265 -4 -11
-22 -60 -40 -110 -17 -49 -38 -106 -45 -125 -8 -19 -28 -74 -44 -122 -34 -98
-35 -97 53 -88 l49 5 36 105 36 105 145 0 c80 1 152 -1 162 -3 9 -2 20 -16 24
-30 9 -32 9 -33 17 -52 3 -8 12 -33 19 -55 25 -76 28 -78 107 -76 43 1 43 1
37 32 -3 17 -12 45 -20 62 -13 28 -24 61 -32 92 -2 6 -43 120 -92 255 -49 135
-100 274 -113 310 l-24 65 -69 1 c-67 0 -68 0 -81 -30z m131 -257 c67 -197 68
-198 62 -205 -5 -5 -74 -6 -180 -4 -31 1 -48 6 -48 14 0 7 23 77 51 157 28 79
54 152 56 162 3 10 7 16 9 14 2 -2 24 -64 50 -138z"/>
<path d="M1095 5249 c-33 -9 -71 -40 -99 -79 l-17 -25 3 50 2 50 -59 3 -60 3
1 -300 c0 -166 2 -303 5 -305 5 -5 53 -9 89 -7 l25 1 1 210 c0 194 2 213 20
237 49 65 113 84 181 53 62 -28 68 -52 68 -290 0 -231 -5 -218 79 -212 l43 4
-3 226 c-1 125 -4 234 -6 242 -17 55 -45 93 -92 124 -32 20 -133 29 -181 15z"/>
<path d="M1700 5244 c-60 -18 -119 -69 -154 -134 -38 -70 -48 -199 -21 -281
44 -137 143 -205 285 -197 162 10 258 114 265 288 6 158 -51 265 -170 319 -42
19 -151 22 -205 5z m179 -111 c99 -72 101 -307 4 -377 -37 -27 -121 -33 -162
-11 -30 15 -69 67 -80 105 -2 8 -5 50 -7 92 -5 141 61 223 170 214 27 -3 61
-13 75 -23z"/>
<path d="M2424 5241 c-22 -10 -54 -35 -71 -55 l-31 -38 3 51 2 51 -58 0 -59 0
0 -304 0 -305 23 -3 c12 -2 39 -1 59 0 l37 4 3 213 c3 198 4 216 24 242 42 57
134 75 190 38 48 -31 56 -71 58 -290 l1 -200 53 -5 c30 -3 56 -2 59 3 8 13 6
401 -2 449 -10 56 -45 110 -90 138 -49 30 -145 36 -201 11z"/>
<path d="M3704 5244 c-17 -7 -47 -31 -65 -54 l-34 -40 2 50 2 50 -59 0 -59 0
2 -302 2 -303 48 -5 c26 -3 52 -3 58 1 8 4 11 73 11 207 0 224 5 248 67 289
54 37 137 13 159 -45 6 -15 11 -109 11 -217 0 -104 0 -200 0 -211 1 -17 8 -23
37 -26 19 -2 37 -1 40 3 2 4 13 5 23 2 18 -5 19 4 19 206 0 144 4 221 12 241
35 85 178 85 213 1 8 -19 12 -101 12 -240 l0 -211 30 -1 c39 -2 79 2 84 7 10
9 6 431 -4 471 -37 149 -222 192 -331 78 l-41 -42 -18 33 c-10 18 -34 41 -54
51 -44 21 -125 25 -167 7z"/>
<path d="M4632 5238 c-81 -30 -137 -95 -161 -185 -48 -179 19 -347 162 -407
51 -21 189 -17 235 7 121 65 179 214 146 376 -37 181 -208 274 -382 209z m186
-100 c63 -49 86 -105 84 -207 -1 -73 -31 -143 -73 -174 -42 -30 -101 -37 -146
-17 -49 22 -70 46 -91 106 -45 126 7 281 103 307 31 8 105 -1 123 -15z"/>
<path d="M5980 5253 c-121 -39 -172 -99 -164 -191 7 -85 73 -137 204 -163 116
-22 164 -60 146 -116 -15 -46 -121 -73 -184 -47 -39 16 -57 33 -66 60 -6 20
-10 20 -59 11 -28 -5 -54 -11 -55 -13 -12 -9 25 -78 55 -104 42 -37 72 -50
133 -57 25 -3 47 -5 50 -6 23 -4 132 18 141 29 6 8 17 14 23 14 18 0 63 51 76
85 16 43 15 97 -4 132 -29 57 -56 69 -263 123 -53 13 -81 42 -77 78 3 31 45
71 77 73 77 4 107 -5 142 -44 28 -32 32 -33 74 -26 54 10 54 10 42 41 -15 40
-61 88 -100 104 -35 16 -162 27 -191 17z"/>
<path d="M2816 5233 c4 -10 21 -58 39 -108 192 -520 183 -491 156 -549 -24
-48 -55 -66 -103 -59 -25 3 -28 -1 -41 -44 -14 -46 -14 -48 7 -55 64 -19 147
0 195 44 35 33 51 66 102 210 21 62 43 122 48 133 5 11 41 108 79 215 39 107
73 203 77 213 6 15 0 17 -58 17 l-64 0 -68 -207 c-38 -115 -70 -217 -72 -228
-9 -53 -26 -18 -98 199 l-78 236 -63 0 c-56 0 -63 -2 -58 -17z"/>
<path d="M5159 5238 c0 -7 -1 -105 -1 -218 0 -223 7 -271 49 -321 78 -92 252
-86 310 12 23 38 28 37 28 -8 -1 -60 2 -63 64 -63 l56 0 0 305 0 305 -60 0
-60 0 0 -192 c1 -117 -4 -204 -10 -220 -38 -96 -153 -127 -220 -60 -16 16 -30
39 -33 53 -2 13 -5 113 -5 222 l-1 197 -58 0 c-39 0 -58 -4 -59 -12z"/>
<path d="M2205 4083 c-21 -6 -48 -38 -52 -63 -9 -50 33 -94 89 -92 81 2 109
110 37 147 -29 15 -39 16 -74 8z"/>
<path d="M40 4042 c0 -5 14 -47 31 -93 17 -46 34 -95 39 -109 5 -14 36 -101
70 -195 34 -93 70 -195 81 -225 10 -30 38 -109 62 -175 50 -135 48 -133 149
-125 l61 5 24 65 c13 36 26 72 30 80 3 8 7 22 9 30 2 8 9 30 17 50 18 43 148
401 151 415 1 6 4 15 7 20 4 6 16 42 29 80 12 39 28 84 35 100 7 17 17 42 23
58 l12 27 -78 0 -78 0 -21 -62 c-41 -120 -230 -673 -235 -688 -4 -11 -9 -6
-18 15 -11 26 -213 612 -243 703 l-10 32 -74 0 c-40 0 -73 -4 -73 -8z"/>
<path d="M1739 3956 c-1 -17 -1 -52 -1 -78 1 -55 -6 -62 -62 -60 l-41 2 0 -55
-1 -55 52 0 51 0 0 -228 c0 -236 3 -257 47 -314 24 -32 99 -57 165 -54 34 1
65 6 70 12 6 5 5 30 -1 61 -10 50 -11 52 -39 46 -38 -7 -86 13 -96 41 -4 11
-7 114 -8 229 l-1 207 72 0 72 0 -2 53 -1 52 -50 2 c-27 1 -59 2 -70 2 -19 1
-20 8 -20 77 0 42 -2 79 -5 82 -3 4 -33 8 -67 8 l-63 1 -1 -31z"/>
<path d="M1121 3814 c-54 -14 -110 -49 -143 -88 -10 -12 -22 -26 -27 -32 -68
-82 -81 -297 -24 -410 35 -71 108 -137 174 -159 107 -36 241 -14 317 50 85 73
123 175 118 314 -5 152 -66 254 -184 308 -64 30 -155 37 -231 17z m199 -136
c93 -68 107 -299 24 -396 -65 -77 -183 -81 -253 -10 -40 41 -63 112 -62 193 1
107 31 180 92 223 51 35 144 31 199 -10z"/>
<path d="M2750 3814 c-55 -17 -70 -29 -104 -78 l-26 -39 -1 44 c-1 24 -2 51
-3 59 -1 11 -16 16 -60 18 -33 2 -62 -1 -65 -6 -8 -14 -7 -680 2 -688 8 -8
116 -9 124 -1 3 3 5 93 5 199 -1 233 3 278 32 320 42 64 145 85 213 44 59 -36
65 -67 67 -328 l1 -233 30 -5 c16 -3 47 -3 68 -1 l38 3 -1 250 c-1 270 -7 312
-55 374 -52 69 -169 99 -265 68z"/>
<path d="M3431 3814 c-93 -27 -167 -110 -196 -220 -23 -89 -14 -226 20 -298
48 -101 137 -160 247 -165 72 -3 125 17 173 66 24 24 46 40 48 36 11 -21 -3
-166 -20 -200 -47 -96 -238 -106 -311 -17 l-29 34 -54 -22 c-30 -12 -55 -23
-57 -24 -7 -5 22 -50 50 -77 124 -120 413 -105 512 26 42 56 45 91 46 490 l0
378 -68 -3 -67 -3 1 -52 c0 -29 -3 -53 -7 -53 -4 0 -15 12 -25 28 -50 77 -155
108 -263 76z m176 -115 c58 -22 93 -72 110 -159 19 -96 -7 -212 -58 -254 -83
-70 -216 -48 -268 45 -16 29 -39 137 -34 159 1 3 4 25 8 50 19 130 129 202
242 159z"/>
<path d="M2169 3813 c-5 -46 -1 -697 4 -695 4 1 35 2 70 2 l62 0 0 347 0 348
-68 3 c-37 2 -67 -1 -68 -5z"/>
<path d="M5400 3790 c-19 -4 -49 -10 -66 -14 -133 -26 -288 -126 -366 -236
-66 -92 -107 -204 -111 -305 l-2 -49 139 -1 c86 0 140 3 142 10 2 5 5 26 8 45
35 235 264 374 502 305 172 -49 267 -177 266 -355 -1 -155 -80 -279 -247 -389
-95 -62 -101 -67 -171 -136 -98 -98 -153 -232 -168 -410 -5 -64 -9 -133 -7
-150 1 -7 49 -11 136 -11 l135 1 1 30 c7 256 70 371 279 514 98 68 173 137
216 201 37 54 79 158 89 220 12 67 12 189 2 235 -5 22 -11 51 -13 64 -8 40
-46 123 -78 171 -78 117 -208 207 -356 245 -70 18 -271 27 -330 15z"/>
<path d="M355 2494 c-8 -20 -15 -40 -15 -44 0 -4 -9 -29 -19 -56 -11 -27 -51
-137 -89 -244 -39 -107 -98 -273 -133 -368 -34 -95 -59 -175 -56 -178 9 -9
129 -6 138 3 5 5 26 60 48 123 l39 115 176 1 c96 0 179 -2 184 -5 4 -3 26 -58
49 -121 45 -127 45 -128 134 -121 47 3 50 5 45 25 -4 11 -9 29 -11 38 -2 9 -9
27 -16 40 -7 13 -12 25 -12 28 0 3 -1 10 -3 15 -23 68 -197 549 -230 638 -24
66 -44 125 -44 133 0 11 -19 14 -85 14 l-85 0 -15 -36z m195 -409 c22 -61 35
-112 30 -115 -8 -5 -259 -5 -267 -1 -4 2 30 97 40 109 5 6 7 12 4 12 -3 0 8
37 25 83 16 45 31 89 33 98 2 8 11 33 20 55 l17 39 30 -85 c16 -47 47 -134 68
-195z"/>
<path d="M1268 2300 c-47 -14 -85 -42 -112 -83 -14 -23 -27 -34 -27 -27 -1 8
-3 31 -4 50 -2 19 -3 40 -4 47 -1 8 -23 12 -66 12 l-65 0 2 -481 3 -481 45 1
c96 0 86 -21 85 178 0 97 3 181 7 187 6 9 8 9 8 0 0 -21 52 -73 93 -94 47 -24
133 -28 193 -9 48 15 116 69 142 113 52 84 73 242 48 352 -14 59 -57 137 -94
172 -59 55 -178 84 -254 63z m135 -136 c31 -23 58 -67 74 -118 16 -52 10 -181
-10 -228 -33 -78 -105 -123 -181 -114 -103 13 -160 100 -159 246 0 117 26 176
98 222 39 25 140 20 178 -8z"/>
<path d="M2023 2284 c-27 -13 -59 -39 -72 -59 -13 -19 -27 -35 -32 -35 -4 0
-7 20 -5 45 1 24 0 49 -4 55 -4 7 -31 10 -66 8 l-59 -3 -3 -477 c-1 -316 1
-478 8 -479 5 -1 21 -1 35 -1 14 0 40 0 58 1 l33 1 -1 178 c0 97 1 181 3 185
2 5 15 -7 28 -27 38 -55 104 -89 172 -88 75 1 96 6 147 37 92 53 144 155 150
292 7 180 -52 306 -172 364 -66 32 -160 33 -220 3z m157 -115 c63 -39 91 -95
96 -191 8 -158 -51 -259 -159 -273 -145 -19 -230 129 -193 335 10 53 57 117
100 136 47 20 116 17 156 -7z"/>
<path d="M5398 1820 c-45 -13 -96 -59 -119 -107 -37 -76 -17 -179 46 -236 58
-54 161 -70 224 -36 128 70 157 225 60 328 -47 50 -139 73 -211 51z"/>
</g>
</svg>
